<svg xmlns="http://www.w3.org/2000/svg" viewBox="0 0 83.65 85.23"><defs><style>.cls-1{fill:#3c4d5c;}</style></defs><g id="Layer_2" data-name="Layer 2"><g id="Layer_3" data-name="Layer 3"><path class="cls-1" d="M55,85.23c-16.27,0-30.9-10.82-36.83-27.06H6.83a6.46,6.46,0,1,1,0-12.89h8.64c-.06-.9-.08-1.79-.08-2.67,0-1,0-2.14.12-3.24H6.83A6.65,6.65,0,0,1,0,32.93a6.65,6.65,0,0,1,6.83-6.44h11.5C24.39,10.59,38.94,0,55,0A37.93,37.93,0,0,1,81.77,11.27a6.2,6.2,0,0,1-.25,9.11,7.13,7.13,0,0,1-9.65-.23A24,24,0,0,0,55,12.89c-8.87,0-17,5.14-21.74,13.59H60.53a6.66,6.66,0,0,1,6.83,6.45,6.66,6.66,0,0,1-6.83,6.44H29.2A32.24,32.24,0,0,0,29,42.61c0,.88,0,1.77.11,2.67H60.53a6.46,6.46,0,1,1,0,12.89H32.89C37.58,66.86,46,72.34,55,72.34a24.06,24.06,0,0,0,16.93-7.26,7.11,7.11,0,0,1,9.64-.23A6.2,6.2,0,0,1,81.77,74,38,38,0,0,1,55,85.23ZM6.83,49.06a2.67,2.67,0,1,0,0,5.34H19.57a2,2,0,0,1,1.91,1.32C26.55,71.11,40,81.45,55,81.45A33.87,33.87,0,0,0,78.87,71.36a2.58,2.58,0,0,0-.1-3.78,2.94,2.94,0,0,0-2-.73,2.88,2.88,0,0,0-2,.83h0A28.11,28.11,0,0,1,55,76.11c-11.47,0-22.08-7.51-27-19.12a1.79,1.79,0,0,1,.2-1.76,2,2,0,0,1,1.66-.83H60.53a2.67,2.67,0,1,0,0-5.34H27.33a2,2,0,0,1-2-1.67A36.87,36.87,0,0,1,25,42.61a37.55,37.55,0,0,1,.39-5.38,2,2,0,0,1,2-1.63H60.53a2.67,2.67,0,1,0,0-5.34H30a2,2,0,0,1-1.66-.84,1.81,1.81,0,0,1-.18-1.78C33.32,16.21,43.56,9.11,55,9.11a28.12,28.12,0,0,1,19.82,8.44,3,3,0,0,0,4,.09,2.56,2.56,0,0,0,.1-3.77A33.86,33.86,0,0,0,55,3.77C40.24,3.77,26.87,13.9,21.66,29a2,2,0,0,1-1.9,1.3H6.83a2.67,2.67,0,1,0,0,5.34H17.69a2.05,2.05,0,0,1,1.49.63,1.82,1.82,0,0,1,.5,1.46,41.94,41.94,0,0,0-.29,4.92A40.83,40.83,0,0,0,19.62,47a1.84,1.84,0,0,1-.51,1.45,2.08,2.08,0,0,1-1.48.62ZM73.32,66.38h0Z"/></g></g></svg>