<svg xmlns="http://www.w3.org/2000/svg" viewBox="0 0 65.13 78.66"><defs><style>.cls-1{fill:#3c4d5c;}</style></defs><g id="Layer_2" data-name="Layer 2"><g id="Layer_3" data-name="Layer 3"><path class="cls-1" d="M6.45,78.66A6.51,6.51,0,0,1,.09,73.35c-.34-1.88,0-5.34,6.29-7.47a20.27,20.27,0,0,0,3.88-2.62,13.75,13.75,0,0,0,2.86-3.43A16.63,16.63,0,0,0,15,55.21a26.58,26.58,0,0,0,.66-6.27,22.4,22.4,0,0,0-.41-4.24H7.12a2,2,0,0,1-.35,0l-.28-.05a5.58,5.58,0,0,1,.13-11.09h5.47c-.53-1.91-.95-3.65-1.23-5.19a32.29,32.29,0,0,1-.63-5.8A23.82,23.82,0,0,1,12,13.17,20.16,20.16,0,0,1,17.11,6a22.81,22.81,0,0,1,7.72-4.46A30,30,0,0,1,34.58,0a30.26,30.26,0,0,1,9.05,1.3A21.2,21.2,0,0,1,51,5.24a20.06,20.06,0,0,1,5,6.44,24.27,24.27,0,0,1,2.35,8.73.66.66,0,0,1,0,.14v.1a2.67,2.67,0,0,1,0,.4l0,.55a.49.49,0,0,0,0,.12,6.68,6.68,0,0,1-13.25.35,4.23,4.23,0,0,1-.18-1,1.15,1.15,0,0,1,0-.19h0a2.19,2.19,0,0,1,0-.27c-.58-6.5-3.82-9.41-10.51-9.41a11.35,11.35,0,0,0-4.4.82,9.74,9.74,0,0,0-3.26,2.23,10.74,10.74,0,0,0-2.16,3.38,10.58,10.58,0,0,0-.79,4,42.43,42.43,0,0,0,2.2,11.89H40.08a4.6,4.6,0,0,1,.71.09,5.57,5.57,0,0,1,.7,10.76,4.05,4.05,0,0,1-1.21.3h-.17l-11.42,0a13.62,13.62,0,0,1,.23,2.48,33.3,33.3,0,0,1-.51,6,20,20,0,0,1-1.72,5.17,22.11,22.11,0,0,1-2.8,4.25l1.27,0a31.61,31.61,0,0,1,5.18.55l6.23,1.09,5.87,1a22.08,22.08,0,0,0,3.41.5,21.83,21.83,0,0,0,9.95-2.45l.2-.09.15-.06a4.72,4.72,0,0,1,1.12-.33l.32-.07a2.2,2.2,0,0,1,.37-.07,6.49,6.49,0,0,1,2.19,12.76c-.36.13-1.45.54-1.86.72a36,36,0,0,1-11.76,2.43h-.2a16.22,16.22,0,0,1-3.11-.39c-1.15-.24-2.42-.53-3.82-.85s-2.84-.67-4.35-1-2.9-.72-4.27-1-2.6-.58-3.79-.8a13.34,13.34,0,0,0-2.4-.3c-4.86,0-10.47,1.43-16.67,4.26a2.32,2.32,0,0,1-.63.19A5.93,5.93,0,0,1,6.45,78.66Zm-.21-3.88h0ZM7.3,40.7h9.52a2,2,0,0,1,1.95,1.57L19,43.37a26.9,26.9,0,0,1,.6,5.57,30.31,30.31,0,0,1-.78,7.22,20.78,20.78,0,0,1-2.27,5.72,18,18,0,0,1-3.68,4.41,24.35,24.35,0,0,1-4.8,3.21,1.48,1.48,0,0,1-.29.12c-1.52.51-4,1.57-3.77,3a2.52,2.52,0,0,0,2.47,2c6.66-3,12.73-4.52,18.1-4.52a17.32,17.32,0,0,1,3.14.37c1.25.23,2.57.51,3.94.82S34.53,72,36,72.4s2.89.72,4.26,1,2.61.6,3.74.83a11.89,11.89,0,0,0,2.29.31h.2a32.2,32.2,0,0,0,10.23-2.13c.47-.2,2.11-.81,2.11-.81l.25-.08a2.48,2.48,0,0,0-.61-4.92l-.43.09-.12,0c-.13,0-.17,0-.17.05l-.17.07-.12,0a25.75,25.75,0,0,1-11.65,2.83,23.2,23.2,0,0,1-4.12-.56l-5.87-1L29.66,67a27.91,27.91,0,0,0-4.5-.49,23.69,23.69,0,0,0-2.38.11L19.13,67a2,2,0,0,1-1.65-3.36L20,61c.23-.25.45-.49.66-.74a18.14,18.14,0,0,0,2.48-3.7,15.6,15.6,0,0,0,1.37-4.12,28.84,28.84,0,0,0,.44-5.23,9.7,9.7,0,0,0-.27-2.29l-.42-1.72a2,2,0,0,1,1.94-2.47l13.78,0,.2-.08A1.57,1.57,0,0,0,40,37.53H24.45a2,2,0,0,1-1.9-1.4l-.31-1a47.33,47.33,0,0,1-2.51-13.51,14.72,14.72,0,0,1,1.08-5.56,14.88,14.88,0,0,1,3-4.6,13.45,13.45,0,0,1,4.61-3.17,15.18,15.18,0,0,1,6-1.14C43,7.17,48,11.64,48.82,20.08a.09.09,0,0,1,0,.05,1.87,1.87,0,0,1,0,.25l0,.34v.17a.76.76,0,0,0,0,.11,1.65,1.65,0,0,1,.07.32,2.69,2.69,0,0,0,5.34,0v-.65a20.25,20.25,0,0,0-1.94-7.24,16,16,0,0,0-4-5.17,17.2,17.2,0,0,0-6-3.18A26.16,26.16,0,0,0,34.58,4a25.71,25.71,0,0,0-8.43,1.31A18.54,18.54,0,0,0,19.78,9a16.14,16.14,0,0,0-4.07,5.77,19.83,19.83,0,0,0-1.48,7.8,28.82,28.82,0,0,0,.56,5.07c.3,1.63.76,3.5,1.36,5.58L16.67,35a2,2,0,0,1-1.92,2.55H6.92A1.58,1.58,0,0,0,7,40.65l.14,0Z"/></g></g></svg>