<svg xmlns="http://www.w3.org/2000/svg" viewBox="0 0 70.13 94.69"><defs><style>.cls-1{fill:#3c4d5c;}</style></defs><g id="Layer_2" data-name="Layer 2"><g id="Layer_3" data-name="Layer 3"><path class="cls-1" d="M35.8,94.69a7.43,7.43,0,0,1-7.42-7.42V65H5.45a5.45,5.45,0,0,1,0-10.9H28.38V48.28H5.45a5.45,5.45,0,1,1,0-10.9H21.09L2.16,11.84A7.42,7.42,0,0,1,14.08,3L35.63,32.06,56,3.3a7.42,7.42,0,0,1,13.37,3,7.37,7.37,0,0,1-1.25,5.54l-18,25.51H64.68a5.45,5.45,0,1,1,0,10.9H43.23v5.85H64.68a5.45,5.45,0,0,1,0,10.9H43.23V87.27A7.43,7.43,0,0,1,35.8,94.69ZM5.45,58.13a1.45,1.45,0,1,0,0,2.9H30.38a2,2,0,0,1,2,2V87.27a3.43,3.43,0,0,0,6.85,0V63a2,2,0,0,1,2-2H64.68a1.45,1.45,0,0,0,0-2.9H41.23a2,2,0,0,1-2-2V46.4a2,2,0,0,1,.36-1.15l.09-.12a2,2,0,0,1,1.63-.85H64.68a1.45,1.45,0,1,0,0-2.9H46.19a2,2,0,0,1-1.64-3.16L64.8,9.56a3.42,3.42,0,0,0-3.37-5.35,3.43,3.43,0,0,0-2.22,1.4l-21.9,31a2,2,0,0,1-3.24,0L10.87,5.38a3.42,3.42,0,0,0-5.5,4.08l21.3,28.72a2,2,0,0,1-1.6,3.2H5.45a1.45,1.45,0,1,0,0,2.9H30.18a2,2,0,0,1,1.61.81l.2.26a2,2,0,0,1,.39,1.19v9.59a2,2,0,0,1-2,2Z"/></g></g></svg>